<svg width="16" height="16" viewBox="0 0 16 16" fill="none" xmlns="http://www.w3.org/2000/svg">
<path d="M14.6633 0.668794C14.412 0.588718 14.0999 0.613594 13.89 0.729603C13.8071 0.779322 12.7797 1.78469 10.8822 3.68219L8.0014 6.56295L5.12376 3.68531C3.22374 1.7853 2.19641 0.78006 2.11356 0.730352C1.59159 0.43487 0.870735 0.741478 0.674606 1.34081C0.591737 1.58938 0.616573 1.90146 0.732556 2.11135C0.782264 2.1942 1.7875 3.22154 3.68752 5.12155L6.56516 7.99919L3.68715 10.8772C1.7869 12.7775 0.781526 13.8049 0.731807 13.8878C0.436259 14.4098 0.742776 15.1306 1.34208 15.3266C1.59064 15.4095 1.90273 15.3846 2.11263 15.2686C2.19549 15.2189 3.22295 14.2135 5.12321 12.3133L8.00121 9.43525L10.8816 12.3157C12.7789 14.2129 13.8062 15.2181 13.8891 15.2678C14.0989 15.3838 14.411 15.4087 14.6624 15.3286C15.2589 15.1297 15.5655 14.4088 15.2701 13.8868C15.2203 13.804 14.2151 12.7767 12.3179 10.8794L9.43745 7.99901L12.3182 5.11824C14.2157 3.22075 15.2211 2.19329 15.2708 2.11043C15.478 1.74309 15.3924 1.24873 15.072 0.92838C14.9257 0.782012 14.84 0.729543 14.6633 0.668794Z" fill="white"/>
</svg>
