<svg width="40" height="40" viewBox="0 0 40 40" fill="none" xmlns="http://www.w3.org/2000/svg">
<path d="M39.43 19.6172C39.43 30.2348 30.8227 38.8421 20.2051 38.8421C9.58751 38.8421 0.980235 30.2348 0.980235 19.6172C0.980235 8.99962 9.58751 0.392345 20.2051 0.392345C30.8227 0.392345 39.43 8.99962 39.43 19.6172Z" stroke="#564D76" stroke-width="0.784689"/>
<path d="M21.5645 14.6267H23.2323C23.3857 14.6267 23.5102 14.5014 23.5102 14.3471V12.6693C23.5102 12.5149 23.3857 12.3896 23.2323 12.3896H21.5645C19.8789 12.3896 18.5069 13.7694 18.5069 15.4656V17.423H16.5612C16.4077 17.423 16.2832 17.5483 16.2832 17.7026V19.3804C16.2832 19.5348 16.4077 19.6601 16.5612 19.6601H18.5069V25.5323C18.5069 25.6867 18.6314 25.812 18.7849 25.812H20.4526C20.6061 25.812 20.7306 25.6867 20.7306 25.5323V19.6601H22.6763C22.7959 19.6601 22.902 19.5829 22.9404 19.4688L23.4963 17.791C23.5247 17.706 23.5102 17.612 23.458 17.5388C23.4052 17.4661 23.3218 17.423 23.2323 17.423H20.7306V15.4656C20.7306 15.0031 21.1047 14.6267 21.5645 14.6267Z" fill="white"/>
</svg>
