<svg width="40" height="40" viewBox="0 0 40 40" fill="none" xmlns="http://www.w3.org/2000/svg">
<path d="M39.6077 19.6172C39.6077 30.2348 31.0005 38.8421 20.3829 38.8421C9.76524 38.8421 1.15797 30.2348 1.15797 19.6172C1.15797 8.99962 9.76524 0.392345 20.3829 0.392345C31.0005 0.392345 39.6077 8.99962 39.6077 19.6172Z" stroke="#564D76" stroke-width="0.784689"/>
<path d="M23.0498 14.4546H17.3037C16.5598 14.4553 15.8466 14.7511 15.3206 15.2771C14.7946 15.8031 14.4988 16.5163 14.498 17.2602V23.0063C14.4988 23.7502 14.7946 24.4634 15.3206 24.9894C15.8466 25.5154 16.5598 25.8112 17.3037 25.8119H23.0498C23.7936 25.8109 24.5066 25.515 25.0326 24.9891C25.5585 24.4632 25.8544 23.7501 25.8554 23.0063V17.2602C25.8544 16.5164 25.5585 15.8034 25.0326 15.2774C24.5066 14.7515 23.7936 14.4556 23.0498 14.4546ZM22.9912 18.0393C22.8485 18.0391 22.7091 17.9966 22.5906 17.9172C22.4721 17.8378 22.3797 17.725 22.3253 17.5931C22.2709 17.4612 22.2568 17.3162 22.2848 17.1763C22.3128 17.0364 22.3816 16.9079 22.4826 16.8072C22.5836 16.7064 22.7123 16.6379 22.8522 16.6102C22.9922 16.5825 23.1372 16.597 23.269 16.6518C23.4007 16.7065 23.5133 16.7991 23.5924 16.9178C23.6715 17.0366 23.7136 17.1761 23.7135 17.3188C23.7133 17.4135 23.6946 17.5073 23.6582 17.5948C23.6219 17.6822 23.5686 17.7617 23.5016 17.8286C23.4345 17.8955 23.3549 17.9485 23.2673 17.9847C23.1798 18.0208 23.0859 18.0394 22.9912 18.0393ZM20.1767 17.4288C20.7116 17.4288 21.2345 17.5874 21.6792 17.8846C22.124 18.1817 22.4706 18.6041 22.6753 19.0983C22.88 19.5925 22.9336 20.1363 22.8292 20.6609C22.7249 21.1855 22.4673 21.6674 22.0891 22.0456C21.7108 22.4238 21.2289 22.6814 20.7043 22.7858C20.1797 22.8901 19.6359 22.8366 19.1418 22.6319C18.6476 22.4272 18.2252 22.0805 17.928 21.6358C17.6309 21.191 17.4723 20.6682 17.4723 20.1333C17.4733 19.4163 17.7585 18.729 18.2655 18.2221C18.7725 17.7151 19.4598 17.4298 20.1767 17.4288Z" fill="white"/>
<path d="M20.18 21.7604C20.5019 21.7604 20.8165 21.665 21.0841 21.4862C21.3517 21.3074 21.5603 21.0532 21.6835 20.7559C21.8066 20.4585 21.8388 20.1313 21.7761 19.8157C21.7133 19.5 21.5583 19.2101 21.3307 18.9825C21.1031 18.7549 20.8132 18.5999 20.4975 18.5371C20.1818 18.4743 19.8546 18.5066 19.5573 18.6297C19.2599 18.7529 19.0058 18.9615 18.827 19.2291C18.6482 19.4967 18.5527 19.8113 18.5527 20.1332C18.5532 20.5646 18.7248 20.9782 19.0299 21.2833C19.335 21.5884 19.7486 21.76 20.18 21.7604Z" fill="white"/>
</svg>
