<svg width="15" height="13" viewBox="0 0 15 13" fill="none" xmlns="http://www.w3.org/2000/svg">
<path d="M6.78377 0.850345C7.23075 1.08075 7.4289 1.60145 7.24458 2.05765C7.19389 2.17285 6.63171 2.76728 5.50275 3.89625L3.83464 5.56896H11.4304H13.6971L13.8952 5.68416C14.1855 5.85466 14.3284 6.12192 14.3284 6.49056C14.3284 6.8592 14.1855 7.12647 13.8952 7.29697L13.6971 7.41217H11.4304H3.83464L5.50275 9.08027C6.63171 10.2138 7.19389 10.8083 7.24458 10.9235C7.40125 11.3059 7.27223 11.7667 6.93584 12.0386C6.80221 12.14 6.70083 12.1769 6.5119 12.1953C5.97276 12.2368 6.16169 12.3888 3.38766 9.65627C1.99143 8.28308 0.802563 7.07578 0.742658 6.9698C0.585986 6.70714 0.585986 6.27399 0.742658 6.01133C0.880899 5.77171 5.83452 0.887209 6.00041 0.822697C6.18473 0.753577 6.6271 0.767401 6.78377 0.850345Z" fill="white"/>
</svg>
