<svg width="40" height="40" viewBox="0 0 40 40" fill="none" xmlns="http://www.w3.org/2000/svg">
<path d="M38.8421 19.6172C38.8421 30.2348 30.2348 38.8421 19.6172 38.8421C8.99962 38.8421 0.392345 30.2348 0.392345 19.6172C0.392345 8.99962 8.99962 0.392345 19.6172 0.392345C30.2348 0.392345 38.8421 8.99962 38.8421 19.6172Z" stroke="#564D76" stroke-width="0.784689"/>
<path d="M14.2987 15.4876C15.1541 15.4876 15.8475 14.7942 15.8475 13.9389C15.8475 13.0835 15.1541 12.3901 14.2987 12.3901C13.4434 12.3901 12.75 13.0835 12.75 13.9389C12.75 14.7942 13.4434 15.4876 14.2987 15.4876Z" fill="white"/>
<path d="M15.5893 16.52H13.0081C12.8656 16.52 12.75 16.6501 12.75 16.8104V25.522C12.75 25.6823 12.8656 25.8124 13.0081 25.8124H15.5893C15.7318 25.8124 15.8475 25.6823 15.8475 25.522V16.8104C15.8475 16.6501 15.7318 16.52 15.5893 16.52Z" fill="white"/>
<path d="M24.0788 16.69C22.8376 16.2899 21.2852 16.6414 20.3543 17.2716C20.3223 17.1541 20.2085 17.0667 20.0732 17.0667H17.1693C17.009 17.0667 16.8789 17.1891 16.8789 17.34V25.5391C16.8789 25.6899 17.009 25.8124 17.1693 25.8124H20.0732C20.2335 25.8124 20.3635 25.6899 20.3635 25.5391V19.6467C20.8328 19.2662 21.4374 19.1449 21.9322 19.3427C22.4119 19.5335 22.6866 19.9992 22.6866 20.6196V25.5391C22.6866 25.6899 22.8167 25.8124 22.977 25.8124H25.8809C26.0412 25.8124 26.1713 25.6899 26.1713 25.5391V20.0692C26.1382 17.8232 25.0155 16.9918 24.0788 16.69Z" fill="white"/>
</svg>
