<svg width="14" height="13" viewBox="0 0 14 13" fill="none" xmlns="http://www.w3.org/2000/svg">
<path d="M7.71208 0.850346C7.2651 1.08075 7.06695 1.60145 7.25127 2.05765C7.30196 2.17285 7.86414 2.76728 8.9931 3.89625L10.6612 5.56896H3.06548H0.79878L0.600634 5.68416C0.310329 5.85466 0.16748 6.12192 0.16748 6.49056C0.16748 6.8592 0.310329 7.12647 0.600634 7.29697L0.79878 7.41217H3.06548H10.6612L8.9931 9.08027C7.86414 10.2138 7.30196 10.8083 7.25127 10.9235C7.0946 11.3059 7.22362 11.7667 7.56001 12.0386C7.69364 12.14 7.79502 12.1769 7.98395 12.1953C8.52309 12.2368 8.33416 12.3888 11.1082 9.65627C12.5044 8.28308 13.6933 7.07578 13.7532 6.9698C13.9099 6.70714 13.9099 6.27399 13.7532 6.01133C13.615 5.77171 8.66133 0.887209 8.49544 0.822697C8.31112 0.753576 7.86875 0.767401 7.71208 0.850346Z" fill="white"/>
</svg>
