<svg width="40" height="40" viewBox="0 0 40 40" fill="none" xmlns="http://www.w3.org/2000/svg">
<path d="M39.0198 19.6172C39.0198 30.2348 30.4126 38.8421 19.795 38.8421C9.17735 38.8421 0.570079 30.2348 0.570079 19.6172C0.570079 8.99962 9.17735 0.392345 19.795 0.392345C30.4126 0.392345 39.0198 8.99962 39.0198 19.6172Z" stroke="#564D76" stroke-width="0.784689"/>
<path d="M27.3004 15.838C27.2049 15.7376 27.0509 15.7123 26.9246 15.7743C26.8461 15.8127 26.6984 15.8632 26.523 15.9131C26.7443 15.6318 26.9221 15.3167 27.0007 15.0336C27.0346 14.9115 26.985 14.7829 26.8769 14.7101C26.7688 14.638 26.6248 14.638 26.5168 14.7101C26.3464 14.8238 25.5244 15.1652 25.0047 15.2759C23.8301 14.2917 22.4632 14.1895 21.0422 14.9831C19.8871 15.6282 19.6357 16.94 19.6847 17.7396C17.0408 17.4961 15.3974 16.1602 14.4723 15.0546C14.4076 14.9771 14.3032 14.9362 14.2052 14.9422C14.1021 14.9494 14.0091 15.0041 13.9563 15.0889C13.5189 15.7953 13.3976 16.5763 13.6069 17.3476C13.7213 17.7684 13.9211 18.1394 14.153 18.44C14.0418 18.3877 13.9343 18.3222 13.8331 18.244C13.7401 18.1707 13.61 18.1568 13.5001 18.2055C13.3907 18.2554 13.3209 18.3612 13.3209 18.4773C13.3209 19.8017 14.187 20.6855 14.9958 21.1472C14.8651 21.1322 14.7287 21.1045 14.5911 21.0642C14.4729 21.03 14.3447 21.0642 14.263 21.1532C14.1813 21.2416 14.1618 21.3678 14.2127 21.4755C14.6671 22.4368 15.5281 23.0981 16.5933 23.338C15.6632 23.8604 14.4182 24.1165 13.2782 23.9909C13.1305 23.971 12.9897 24.0606 12.9432 24.1965C12.8967 24.3324 12.9577 24.4815 13.0878 24.5512C14.8173 25.4801 16.3809 25.8119 17.7321 25.8119C19.6986 25.8119 21.2163 25.1097 22.1401 24.5224C24.6307 22.9412 26.183 20.1023 25.9668 17.5622C26.3659 17.2803 26.963 16.7596 27.3331 16.1999C27.4098 16.0869 27.396 15.9378 27.3004 15.838Z" fill="white"/>
</svg>
